<svg width="343" height="347" viewBox="0 0 343 347" fill="none" xmlns="http://www.w3.org/2000/svg">
<path d="M193.053 1.90326C178.927 4.54268 169.673 8.43234 161.067 15.1003C150.026 23.8521 146.292 31.4925 146.454 44.9674C146.617 65.3882 155.872 74.9735 176.33 75.9459C197.275 77.0572 214.973 69.5557 218.545 58.0256C220.655 51.3576 218.22 42.328 213.187 37.6049L209.615 34.2709L208.64 44.4118C207.828 53.5803 207.341 54.8305 202.308 58.5813C197.762 62.0542 196.138 62.6099 190.293 61.9153C169.673 59.5537 173.082 31.7704 195.002 23.2964C213.024 16.2117 230.073 24.1299 234.619 41.7724C236.73 49.6906 235.593 55.664 230.722 63.0266C226.013 70.1114 221.467 73.7232 210.426 79.0021L201.496 83.3085L212.212 82.7528C239.814 81.2247 254.265 66.7774 254.914 40.1054C255.077 24.6856 253.616 18.8511 247.446 12.8777C241.438 7.04317 233.645 3.43134 222.117 1.3476C211.401 -0.597244 205.88 -0.458328 193.053 1.90326Z" fill="white"/>
<path d="M261.247 30.7979C264.819 62.4709 255.889 76.6404 223.74 89.8376C217.246 92.477 211.076 95.9499 210.102 97.478C208.478 100.117 209.127 119.705 211.401 135.958C212.537 144.849 207.179 153.6 197.6 158.046C187.858 162.63 163.828 163.602 136.55 160.407C106.35 157.073 82.8072 156.24 71.604 158.185C66.2459 159.018 55.6922 162.769 48.061 166.242C30.8503 174.16 22.0826 174.855 10.2299 168.881L2.59873 164.992L0.975074 168.742C-2.4346 176.244 2.92346 181.245 19.8095 185.968C30.0385 188.885 30.5256 189.163 29.389 192.775C28.7396 194.72 27.9277 202.499 27.4406 210.001C26.7912 220.558 27.2783 225.281 29.389 230.838C34.26 243.202 33.6105 246.675 24.5181 257.51C1.62454 285.432 3.41055 282.237 2.92346 294.74C2.76109 300.991 3.08582 315.16 3.73529 326.274L5.03421 346.417L21.2707 345.861C30.2008 345.583 37.832 345.166 38.1567 344.889C39.9428 343.499 32.9611 334.47 28.5772 332.525C23.8686 330.441 23.7062 330.163 23.8686 320.3C24.031 314.883 24.5181 305.992 25.1675 300.852C26.1417 291.406 26.1417 291.406 41.404 275.569C49.6847 266.817 57.1535 259.594 57.803 259.594C58.4524 259.594 59.589 263.483 60.0761 268.207C62.3492 285.849 65.7589 294.045 77.9363 313.216C86.704 326.552 90.276 333.497 90.6008 337.804L91.0879 343.638L107 344.055C122.1 344.472 122.749 344.333 122.749 341.555C122.749 338.082 114.468 330.441 110.734 330.441C107.649 330.441 107 329.052 98.0696 304.325C92.062 287.377 91.2502 283.349 90.6008 267.512C90.276 257.371 90.6008 249.036 91.4126 248.342C92.3868 247.508 97.4201 248.342 104.402 250.425C110.734 252.231 121.613 254.593 128.432 255.565C144.831 257.788 193.703 256.538 210.913 253.343C217.895 252.092 224.065 251.398 224.715 251.814C225.202 252.37 228.611 273.208 232.346 298.213L239.003 343.638L255.564 344.055L272.125 344.472V340.582C272.125 335.303 268.066 330.58 261.571 328.219C255.402 325.996 254.752 323.773 253.291 299.88L252.479 283.904L263.52 266.679C269.69 257.232 275.21 249.592 275.86 249.731C277.97 250.009 309.469 279.459 314.34 285.71C318.886 291.684 319.211 292.795 319.211 305.297C319.211 316.272 318.562 319.189 315.964 322.106L312.879 325.579L322.783 334.192C334.149 343.916 337.234 344.055 340.481 334.748C342.429 329.191 340.806 322.106 336.26 315.855C334.636 313.493 334.636 311.271 336.422 304.047C337.558 299.046 338.695 293.212 338.695 290.989C338.695 288.766 332.038 273.485 323.92 256.954C315.802 240.423 307.196 222.086 304.923 216.252C300.377 204.166 300.052 206.944 310.281 175.549C319.211 148.46 316.289 140.959 286.413 112.62C281.218 107.758 276.996 102.618 276.996 101.229C276.996 98.1725 278.782 98.0336 312.554 95.9499C332.525 94.6996 334.474 94.4218 337.396 91.3656C341.78 86.6425 343.728 81.7804 342.754 78.8631C341.455 75.5291 331.064 69.4168 308.657 58.8591L290.96 50.5241L286.576 39.5497C281.542 26.9083 274.398 19.6846 265.468 18.4344L259.785 17.6009L261.247 30.7979Z" fill="white"/>
</svg>
