<svg width="257" height="135" viewBox="0 0 257 135" fill="none" xmlns="http://www.w3.org/2000/svg">
<path d="M203.649 2.82864C202.714 4.4894 201.988 6.87672 201.988 8.12228C201.988 9.47163 201.261 10.1982 199.912 10.1982C197.94 10.1982 190.57 7.1881 189.532 5.94255C188.494 4.69699 177.388 2.62105 169.396 2.20587C161.819 1.79068 151.854 3.34763 145.419 6.15015C135.143 10.5096 125.386 11.0286 95.5963 9.16024C81.0647 8.22607 62.9003 9.47163 62.9003 11.4438C62.9003 11.859 62.1738 12.2741 61.3434 12.2741C59.1637 12.2741 48.6802 17.3602 47.227 19.1247C46.6043 19.9551 45.5663 20.5779 44.9435 20.5779C44.4245 20.5779 43.179 21.4082 42.2448 22.4462C41.3106 23.4842 38.9233 25.2487 36.9512 26.3905C32.4879 28.8816 22.8348 35.7322 20.2399 38.3271C19.0982 39.4688 16.7108 40.403 14.8425 40.403C12.3514 40.5068 12.1438 40.7144 13.9083 41.0258C15.9843 41.441 16.1919 41.96 15.5691 44.9701C15.0501 47.6688 15.4653 49.0181 17.0222 50.6789C18.7868 52.651 19.8247 52.8586 23.4576 52.2358C26.7791 51.7169 27.9209 50.8865 28.7512 48.9143C29.9968 45.6966 29.0626 42.479 26.2601 40.2992C24.1842 38.6385 24.1842 38.5347 27.4019 36.3549C33.4221 31.9955 33.8373 32.7221 33.8373 45.9042C33.8373 52.7548 34.2525 58.0484 34.8752 58.4636C35.498 58.775 35.9132 59.813 35.9132 60.5396C35.9132 61.3699 37.055 64.4838 38.5081 67.5977C42.0372 74.9673 48.9916 82.4407 53.2472 83.3748C57.0877 84.2052 57.3991 84.9318 55.0118 88.6684C52.6245 92.1975 53.6624 102.37 57.1915 109.532C58.6447 112.542 59.7864 115.448 59.7864 116.071C59.7864 116.59 60.2016 117.109 60.6168 117.109C61.032 117.109 63.1079 119.911 65.0801 123.337C66.9484 126.762 68.9205 129.564 69.4395 129.564C69.8547 129.564 70.1661 130.083 70.1661 130.706C70.1661 133.716 73.28 134.858 81.1685 134.547L89.1609 134.235L84.8014 130.083C82.5179 127.8 80.5458 125.309 80.5458 124.582C80.5458 123.959 80.2344 123.337 79.8192 123.337C78.7812 123.337 75.3559 117.316 75.3559 115.552C75.3559 114.825 74.8369 113.995 74.1104 113.787C72.4496 113.164 72.4496 99.2557 74.1104 98.6329C74.8369 98.4253 75.3559 97.595 75.3559 96.7646C75.3559 96.038 77.0167 93.7545 78.9888 91.6785L82.6217 88.0457L87.0849 89.7064C89.4723 90.5368 92.3786 91.8861 93.5203 92.5089C94.8697 93.3393 102.032 93.7545 115.214 93.7545C133.586 93.7545 134.831 93.8583 136.181 95.8304C137.53 97.9063 137.011 100.086 133.378 106.937C132.236 109.116 132.133 129.564 133.274 129.564C133.69 129.564 134.52 130.602 135.039 131.952C135.973 133.924 136.907 134.235 143.758 134.547C151.127 134.858 151.439 134.754 149.986 132.99C147.702 130.291 143.862 121.676 143.862 119.081C143.862 115.656 149.778 104.549 154.241 99.4633C156.525 96.8684 158.393 94.4811 158.393 93.9621C158.393 93.5469 158.808 93.2355 159.327 93.2355C159.95 93.2355 162.753 90.8482 165.763 88.0457C168.773 85.1394 171.783 82.8558 172.613 82.8558C173.34 82.8558 173.963 82.4407 173.963 82.0255C173.963 80.7799 188.702 72.4762 190.882 72.4762C191.816 72.4762 192.646 72.061 192.646 71.6458C192.646 68.8433 215.274 67.1825 224.304 69.3623C231.674 71.1268 240.808 70.8154 244.129 68.7395C249.111 65.418 257 56.6991 257 54.4156C257 54.0004 253.99 54.0004 250.461 54.4156C244.441 55.0383 243.61 54.8307 241.638 52.651C240.393 51.4055 239.355 49.4333 239.355 48.4992C239.355 47.4612 238.939 46.4232 238.42 46.008C237.798 45.6966 237.071 43.3093 236.656 40.8182C236.344 38.2233 235.618 36.1474 235.099 36.1474C234.58 36.1474 234.165 35.0056 234.165 33.5524C234.165 32.0993 233.75 30.9575 233.231 30.9575C232.712 30.9575 232.089 29.9196 231.674 28.5702C230.739 24.5221 223.993 17.6716 218.595 15.2842C215.689 13.9349 213.405 12.2741 213.302 11.34C213.198 8.32987 208.735 0.337524 206.97 0.0261383C205.828 -0.181458 204.583 0.856506 203.649 2.82864ZM25.5336 43.2055C28.1285 45.2815 27.6095 47.6688 23.9766 49.6409C19.6171 51.9244 16.8146 48.084 19.3058 43.3093C20.6551 40.8182 22.5235 40.8182 25.5336 43.2055Z" fill="white"/>
<path d="M8.71853 42.0638C9.44511 42.3751 10.3793 42.2713 10.6907 41.96C11.1059 41.6486 10.4831 41.3372 9.34131 41.441C8.19955 41.441 7.88816 41.7524 8.71853 42.0638Z" fill="white"/>
<path d="M4.56668 44.1397C5.29325 44.4511 6.22742 44.3473 6.53881 44.0359C6.954 43.7245 6.33122 43.4131 5.18946 43.5169C4.04769 43.5169 3.7363 43.8283 4.56668 44.1397Z" fill="white"/>
<path d="M0.103386 46.527C-0.208004 47.1498 0.207183 47.2536 1.03756 46.9422C2.90589 46.2156 3.21728 45.4891 1.76413 45.4891C1.14135 45.4891 0.414776 45.9042 0.103386 46.527Z" fill="white"/>
</svg>
