<svg width="193" height="206" viewBox="0 0 193 206" fill="none" xmlns="http://www.w3.org/2000/svg">
<path d="M103.795 2.60681C102.364 4.80208 102.077 7.18823 102.173 17.2101C102.268 29.4273 103.127 36.2994 104.463 36.2994C104.941 36.2994 105.609 37.7311 105.991 39.3537C106.277 41.0717 107.613 44.0306 108.854 45.8441C110.095 47.6576 111.145 49.6619 111.145 50.3301C111.145 50.9982 111.431 51.5709 111.908 51.5709C112.863 51.5709 115.917 57.1068 115.917 58.8248C115.917 59.5884 116.394 60.1611 116.871 60.1611C117.444 60.1611 117.826 63.5017 117.826 68.1786C117.826 72.6646 117.444 76.5779 116.871 76.8642C116.394 77.1505 115.917 78.4868 115.917 79.823C115.917 81.5411 114.962 82.4955 111.813 84.0227C109.617 85.0726 106.659 86.9815 105.227 88.3178C102.745 90.6085 99.691 91.563 99.691 89.9404C99.691 89.5586 97.2094 88.4132 94.2506 87.4588C91.1963 86.5043 87.9511 85.3589 87.0921 84.8817C84.8014 83.7363 61.7988 83.7363 61.0352 84.9771C60.7489 85.4544 59.0308 85.9316 57.3128 85.9316C55.5948 85.9316 53.3995 86.5997 52.3496 87.3633C51.3951 88.1269 49.7725 88.795 48.9135 88.795C47.959 88.795 47.1955 89.1768 47.1955 89.7495C47.1955 90.2267 46.5274 90.7039 45.7638 90.7039C45.0002 90.7039 44.3321 91.0857 44.3321 91.563C44.3321 92.0402 43.4731 92.7083 42.5186 93.0901C39.4643 94.0446 20.7568 112.848 18.2752 117.429C15.889 122.01 13.7892 134.8 13.7892 145.777C13.7892 148.831 13.5029 152.267 13.2165 153.412C12.5484 155.894 9.78045 156.276 8.06241 154.176C6.91706 152.84 6.63072 152.935 5.10357 154.558C3.86277 155.894 3.29009 157.898 3.29009 161.334C3.29009 164.866 2.81286 166.775 1.38116 168.207C-0.814111 170.593 -0.432325 172.692 2.81286 177.083C3.95821 178.61 5.19902 180.996 5.5808 182.333C6.53527 186.15 14.3619 193.691 19.8023 196.077C22.7612 197.413 27.0563 198.368 30.4923 198.463C33.6421 198.558 37.4599 199.322 38.9871 200.086C40.5142 200.849 42.3277 201.422 43.0913 201.422C43.7594 201.422 44.3321 201.804 44.3321 202.185C44.3321 203.044 67.8119 205.24 84.0378 205.908C95.3005 206.385 99.691 205.049 99.691 200.945C99.691 199.608 99.3093 198.558 98.7366 198.558C97.4003 198.558 97.5912 194.55 99.0229 192.736C100.646 190.636 103.891 189.014 106.563 189.014C107.804 189.014 109.331 188.537 109.999 187.868C110.572 187.296 112.958 186.819 115.153 186.723C118.399 186.628 119.926 187.2 122.026 189.205C123.553 190.541 125.843 192.259 127.275 193.023C128.611 193.691 130.329 194.836 130.997 195.504C131.666 196.077 132.906 196.65 133.67 196.65C134.434 196.65 135.006 197.031 135.006 197.604C135.006 198.081 136.056 198.749 137.392 199.131C138.729 199.418 139.779 200.086 139.779 200.563C139.779 201.804 154.382 201.613 159.345 200.277C164.117 198.94 164.595 197.795 161.731 193.691C160.013 191.4 159.918 190.732 160.968 189.014C162.113 187.296 161.827 186.723 159.154 184.242C157.436 182.619 155.909 181.378 155.527 181.378C154.382 181.378 149.323 176.224 149.323 174.983C149.323 174.315 151.328 172.788 153.905 171.547C160.3 168.588 163.64 163.721 163.64 157.421C163.64 155.417 164.308 151.694 165.167 149.213C166.408 145.586 166.599 142.436 166.217 134.418C165.74 125.542 165.931 124.015 167.363 122.297C168.317 121.151 170.035 120.292 171.18 120.292C174.235 120.292 184.638 117.238 184.638 116.284C184.638 115.902 185.211 115.52 185.879 115.52C186.547 115.52 187.884 114.088 188.934 112.466C189.888 110.748 191.129 109.03 191.701 108.648C193.133 107.693 192.847 94.2355 191.415 93.7582C190.842 93.5673 190.365 92.6129 190.365 91.563C190.365 89.5586 188.265 85.8362 185.307 82.591C184.352 81.5411 183.398 79.7276 183.111 78.5822C182.729 77.3414 182.157 76.387 181.68 76.387C181.202 76.387 180.821 76.0052 180.821 75.5279C180.821 74.1917 173.185 63.0244 170.131 59.9702C168.794 58.443 166.694 57.2977 165.645 57.2977C164.499 57.2977 163.64 56.8204 163.64 56.3432C163.64 55.7705 162.59 55.3887 161.445 55.3887C157.436 55.3887 154.955 52.239 154.382 46.4167C154.096 43.4579 153.523 41.0717 153.141 41.0717C152.759 41.0717 152.187 39.64 151.9 37.922C150.946 32.3861 148.941 25.8003 148.178 25.8003C147.701 25.8003 147.414 25.0367 147.414 24.0823C147.414 23.2233 146.746 21.6007 145.983 20.6462C145.219 19.5963 144.551 17.9737 144.551 17.0192C144.551 16.0648 144.265 15.3012 143.883 15.3012C143.406 15.3012 142.26 13.4877 141.21 11.197C140.16 9.00172 138.729 6.61557 138.156 5.94745C137.488 5.27931 136.915 4.2294 136.915 3.75217C136.915 2.22502 132.525 2.79771 130.997 4.51575C130.234 5.47021 129.089 8.04727 128.42 10.2425C127.848 12.5332 127.084 14.3467 126.893 14.3467C126.034 14.3467 120.689 9.28807 120.689 8.42905C120.689 7.0928 116.49 2.79771 113.817 1.36601C109.617 -0.829254 105.704 -0.35202 103.795 2.60681Z" fill="white"/>
</svg>
