<svg width="465" height="350" viewBox="0 0 465 350" fill="none" xmlns="http://www.w3.org/2000/svg">
<line y1="174.937" x2="465" y2="174.937" stroke="white" stroke-width="6"/>
<line y1="-3" x2="171.066" y2="-3" transform="matrix(-0.00518751 -0.999987 0.999996 -0.002745 409.094 174.063)" stroke="white" stroke-width="6"/>
<line x1="408.206" y1="3.87317" x2="461.45" y2="3.87317" stroke="white" stroke-width="6"/>
<line x1="408.206" y1="346" x2="461.45" y2="346" stroke="white" stroke-width="6"/>
<line y1="-3" x2="171.066" y2="-3" transform="matrix(-0.00518751 -0.999987 0.999996 -0.002745 409.981 349)" stroke="white" stroke-width="6"/>
<path d="M236.05 193.529L232.726 191.327C220.919 183.54 213.125 178.387 213.125 172.1C213.125 166.947 218.673 162.928 225.734 162.928C229.723 162.928 233.551 164.279 236.05 166.397C238.549 164.279 242.377 162.928 246.366 162.928C253.427 162.928 258.974 166.947 258.974 172.1C258.974 178.387 251.18 183.54 239.374 191.327L236.05 193.529Z" fill="white"/>
</svg>
