<svg width="174" height="210" viewBox="0 0 174 210" fill="none" xmlns="http://www.w3.org/2000/svg">
<path d="M57.1896 0.82103C56.5159 1.24207 55.0001 1.6631 53.8212 1.6631C50.6213 1.74731 43.8005 4.35777 38.748 7.38927C34.6218 9.99973 30.8324 13.1154 25.1062 18.6732C23.8431 20.0205 22.4116 21.031 21.9063 21.031C21.4011 21.031 20.98 21.3678 20.98 21.7047C20.98 22.0415 19.8011 23.052 18.2854 23.8941C9.4435 29.1992 4.3068 36.2727 1.44372 47.1355C-0.408863 54.209 -0.493071 66.8403 1.2753 74.5032C2.62263 80.482 2.95947 81.4083 5.3173 86.8818C6.07517 88.566 6.66463 90.5028 6.66463 91.1764C6.66463 91.9343 6.91725 92.608 7.33829 92.7764C8.18038 93.1132 10.875 98.4184 10.875 99.8499C10.875 100.524 11.2961 101.029 11.7171 101.029C12.2224 101.029 12.5592 101.618 12.5592 102.292C12.5592 102.966 12.896 103.555 13.4013 103.555C13.8223 103.555 14.4118 104.481 14.7486 105.66C15.0012 106.839 15.5065 107.765 15.8433 107.765C16.0959 107.765 17.1064 109.197 18.0327 110.881C18.959 112.65 20.0537 114.418 20.3906 114.923C23.3379 118.713 31.9271 131.596 31.9271 132.186C31.9271 132.691 32.2639 133.028 32.6008 133.028C33.0218 133.028 34.0323 134.375 34.9586 135.975C35.8007 137.575 36.8112 138.923 37.148 138.923C37.569 138.923 37.8217 139.428 37.8217 140.101C37.8217 140.691 38.4111 141.701 39.0848 142.291C40.4321 143.386 40.8532 146.922 39.5058 146.08C38.4111 145.407 27.7167 147.343 27.7167 148.27C27.7167 148.691 27.2956 149.028 26.7904 149.028C24.9378 149.028 20.98 155.175 20.98 158.122C20.98 160.059 18.6222 162.332 17.7801 161.153C17.4433 160.732 15.7591 159.638 14.075 158.796C12.3066 157.869 10.875 156.859 10.875 156.438C10.875 156.101 10.2856 155.764 9.61192 155.764C8.93825 155.764 7.50671 154.838 6.3278 153.659C3.88576 151.217 2.87526 151.049 2.11738 152.817C1.10688 155.512 2.79105 159.132 7.59092 164.269L12.475 169.574L12.3908 177.237C12.3066 184.227 12.5592 185.405 14.6644 189.279C15.9275 191.637 17.6117 193.742 18.3696 193.995C19.8853 194.5 22.9168 196.353 23.5063 197.11C23.7589 197.447 26.622 197.952 29.8219 198.289C39.5058 199.216 44.6425 200.479 48.2635 202.837C50.2003 204.015 51.8844 205.194 52.1371 205.447C52.3897 205.7 53.9054 206.373 55.5054 206.963C65.6104 210.836 73.4417 211.005 81.3573 207.468C82.7889 206.794 84.5572 206.289 85.3151 206.289C86.073 206.289 86.6624 205.868 86.6624 205.447C86.6624 204.942 87.2519 204.605 87.9256 204.605C88.5992 204.605 89.1887 204.352 89.1887 203.931C89.1887 203.594 91.0413 202.331 93.3149 201.068L97.4411 198.71L122.114 199.3C139.882 199.637 149.313 199.468 155.545 198.71C160.26 198.121 164.134 197.447 164.134 197.11C164.134 196.858 165.566 195.931 167.334 195.089C169.355 194.079 170.955 192.479 171.965 190.374C173.734 186.416 173.818 179.595 172.05 176.143C170.365 172.774 166.071 168.395 164.471 168.395C163.713 168.395 162.366 167.89 161.355 167.301C160.26 166.711 154.871 166.122 147.713 165.869L135.924 165.448L135.503 160.396C134.914 153.659 132.556 149.112 128.346 146.754C122.283 143.301 109.483 144.649 102.157 149.449C99.6305 151.133 96.178 151.301 94.7464 149.87C94.2412 149.364 93.2307 149.028 92.3886 149.028C91.5465 149.028 90.8729 148.691 90.8729 148.27C90.8729 147.849 89.9466 147.259 88.7677 147.007C87.5887 146.67 86.6624 146.08 86.6624 145.659C86.6624 145.154 86.2414 144.817 85.8204 144.817C84.2204 144.817 75.547 136.565 71.7576 131.596C70.4945 129.828 69.1471 128.228 68.8945 127.975C67.6314 127.049 61.4 116.018 61.4 114.923C61.4 114.249 61.0631 113.66 60.5579 113.66C60.1369 113.66 59.7158 113.239 59.7158 112.818C59.7158 112.313 58.8737 110.208 57.779 107.934C56.7685 105.744 55.1686 101.702 54.3265 98.9236C53.4844 96.1447 52.4739 93.1132 52.0529 92.1869C51.716 91.2607 51.2108 89.3239 50.8739 87.9765C50.6213 86.545 50.0319 83.7661 49.5266 81.6609C48.9372 78.7136 49.0214 76.5242 50.1161 71.7243C50.8739 68.4402 51.8844 65.6613 52.2213 65.6613C52.6423 65.6613 52.9792 64.9035 52.9792 63.9772C52.9792 59.3457 64.9367 44.104 69.7366 42.5041C70.6629 42.2515 71.505 41.5778 71.505 41.1568C71.505 40.7357 72.0102 40.3989 72.5997 40.3989C74.0312 40.3989 76.5575 35.178 76.5575 32.2307C76.5575 30.3781 76.8101 30.2097 78.4942 30.715C79.5047 31.136 83.5467 31.557 87.4203 31.7254C94.157 32.0623 94.6622 32.2307 96.9359 34.7569C98.3674 36.4411 99.2937 38.4621 99.2937 39.9778V42.4199L100.641 40.5673C101.567 39.3042 102.83 38.7147 105.02 38.6305L108.136 38.5463L104.851 37.7884C102.915 37.2832 100.304 35.7674 98.5358 34.0833C96.0096 31.4728 95.5885 30.5465 95.5885 26.673C95.5043 23.473 94.9149 21.3678 93.1465 18.7574C91.8834 16.7364 90.8729 14.6312 90.8729 13.8733C90.8729 13.1996 90.536 12.6102 90.0308 12.6102C89.6097 12.6102 89.1887 12.0207 89.1887 11.4313C89.1887 9.7471 83.9678 5.87352 81.7784 5.87352C80.8521 5.87352 79.9258 5.6209 79.7574 5.19986C79.4205 4.35777 70.6629 1.6631 68.305 1.6631C67.3788 1.6631 66.284 1.24207 66.0314 0.82103C65.3578 -0.273682 58.8737 -0.273682 57.1896 0.82103Z" fill="white"/>
</svg>
